<svg width="32" height="32" viewBox="0 0 32 32" fill="none" xmlns="http://www.w3.org/2000/svg">
<path d="M16 1.57518e-05C19.7031 -0.00104276 23.292 1.28201 26.1551 3.63053C29.0182 5.97905 30.9784 9.24771 31.7016 12.8795C32.4248 16.5113 31.8663 20.2815 30.1212 23.5477C28.3761 26.8138 25.5524 29.3738 22.1314 30.7913C18.7104 32.2089 14.9036 32.3963 11.3599 31.3217C7.81613 30.247 4.75467 27.9768 2.69718 24.8979C0.639688 21.819 -0.286509 18.1219 0.0764169 14.4366C0.439343 10.7513 2.06893 7.30593 4.6875 4.68752C6.17102 3.19905 7.93423 2.01862 9.87568 1.21416C11.8171 0.409688 13.8985 -0.0029385 16 1.57518e-05ZM20.0521 14.9531L18.1693 16.0235C18.162 16.1616 18.1402 16.2987 18.1042 16.4323C17.9595 16.962 17.6117 17.4131 17.1362 17.6876C16.6607 17.9622 16.0961 18.038 15.5651 17.8985C15.4228 17.8599 15.2849 17.8066 15.1536 17.7396L13.1589 18.875L21.2057 24.7995L20.0521 14.9531ZM12.1224 17.1563L14.0417 16.0651C14.0219 15.8298 14.0431 15.5928 14.1042 15.3646C14.2488 14.835 14.5967 14.3838 15.0721 14.1093C15.5476 13.8347 16.1122 13.759 16.6432 13.8985C16.8808 13.9639 17.1054 14.0696 17.3073 14.211L19.0104 13.2344L10.974 7.30991L12.1224 17.1563ZM24.8333 7.16668C22.7916 5.11787 20.1026 3.84052 17.2245 3.55235C14.3464 3.26419 11.4575 3.98304 9.05013 5.5864C6.64274 7.18975 4.86589 9.57836 4.02243 12.3451C3.17898 15.1118 3.32113 18.0855 4.42465 20.7591C5.52817 23.4328 7.52476 25.641 10.0741 27.0074C12.6235 28.3738 15.5678 28.8139 18.4052 28.2525C21.2427 27.6911 23.7976 26.1631 25.6346 23.9288C27.4716 21.6946 28.4769 18.8925 28.4792 16C28.483 14.3601 28.1629 12.7356 27.5373 11.2197C26.9116 9.70385 25.9927 8.32648 24.8333 7.16668Z" fill="#3F4B52"/>
</svg>
