<svg width="32" height="32" viewBox="0 0 32 32" fill="none" xmlns="http://www.w3.org/2000/svg">
<g clip-path="url(#clip0_42_151)">
<path fill-rule="evenodd" clip-rule="evenodd" d="M2.35035 16.5517C1.46747 16.5517 1.01776 15.4911 1.63153 14.8565L15.281 0.743416C15.6741 0.336947 16.3258 0.337029 16.7188 0.743595L30.3615 14.8567C30.975 15.4914 30.5252 16.5517 29.6425 16.5517L27.7333 16.5517V31C27.7333 31.5523 27.2856 32 26.7333 32L21.2667 32C20.7144 32 20.2667 31.5523 20.2667 31V21.7545C20.2656 21.4212 20.1235 21.1019 19.8714 20.8662C19.6194 20.6305 19.2778 20.4977 18.9213 20.4967H13.0787C12.7222 20.4977 12.3806 20.6305 12.1285 20.8662C11.8765 21.1019 11.7344 21.4212 11.7333 21.7545V31C11.7333 31.5523 11.2856 32 10.7333 32L5.26615 32C4.71406 32 4.26643 31.5526 4.26615 31.0005L4.25869 16.5517L2.35035 16.5517Z" fill="#3F4B52"/>
</g>
<defs>
<clipPath id="clip0_42_151">
<rect width="32" height="32" fill="white"/>
</clipPath>
</defs>
</svg>
