<svg width="98" height="94" viewBox="0 0 98 94" fill="none" xmlns="http://www.w3.org/2000/svg">
<path fill-rule="evenodd" clip-rule="evenodd" d="M46.4305 94C25.8793 83.2131 14.462 72.9574 14.462 47C14.462 21.0426 25.8793 11.1721 46.4305 0C20.7876 0 0 21.0426 0 47C0 72.9574 20.7876 94 46.4305 94ZM78.0346 47.7966C76.0738 60.3868 72.7524 68.1461 59.1619 72.8028C45.5713 77.4595 38.3552 73.3108 28.8189 64.66C33.4192 77.9549 48.1658 84.9575 61.7563 80.3008C75.3469 75.6441 82.6349 61.0914 78.0346 47.7966ZM56.0818 29.8303C50.2897 26.5026 46.5845 27.6297 41.6273 30.6422C44.8093 25.1578 52.0843 23.4095 57.8764 26.7372C63.6685 30.065 65.7845 37.2086 62.6025 42.693C62.6597 36.8653 61.874 33.158 56.0818 29.8303ZM40.3146 62.6872C32.2944 55.2942 28.3605 49.2496 31.5371 37.4523C34.7137 25.6551 41.1106 22.5527 51.8181 19.9656C40.1638 16.8581 28.141 23.9025 24.9644 35.6998C21.7878 47.497 28.6603 59.5797 40.3146 62.6872ZM81.6094 26.881C70.0373 10.1257 58.0975 8.54309 40.0268 10.6476C56.5743 -0.666279 79.3697 3.74493 90.9418 20.5003C102.514 37.2557 98.4804 60.0103 81.9329 71.3241C90.2141 55.0452 93.1814 43.6364 81.6094 26.881ZM67.1686 36.6441C67.7935 44.9262 66.8372 50.3412 58.8999 55.2966C50.9626 60.252 45.7648 58.6791 38.4253 54.5891C43.3206 62.3537 53.7235 64.631 61.6607 59.6756C69.598 54.7202 72.064 44.4086 67.1686 36.6441Z" fill="#55C2FF"/>
</svg>
