<svg width="33" height="32" viewBox="0 0 33 32" fill="none" xmlns="http://www.w3.org/2000/svg">
<g clip-path="url(#clip0_42_154)">
<path d="M13.4184 0H13.4227V0.0018698C17.1267 0.00293825 20.4808 1.49798 22.908 3.91376C25.3311 6.32606 26.8322 9.66072 26.8346 13.3437H26.8365V13.3525V13.3632H26.8346C26.8332 14.8475 26.5884 16.2761 26.1383 17.6082C26.0628 17.8317 25.9839 18.0465 25.9029 18.2516V18.2535C25.5147 19.2311 25.013 20.1554 24.4139 21.0067L32.2204 27.9887L32.2252 27.993L32.2674 28.032L32.2703 28.035C32.7111 28.4525 32.9511 29.0115 32.9814 29.5789C33.0109 30.1398 32.8356 30.7136 32.4502 31.1738L32.4472 31.1781L32.4002 31.2323L32.3908 31.2417L32.3517 31.2844L32.3474 31.29C31.9273 31.7286 31.3665 31.9669 30.7958 31.9968C30.2329 32.0264 29.6558 31.8526 29.193 31.4684L29.189 31.4655L29.1342 31.4188L29.1264 31.4123L21.1419 24.2713C20.9057 24.4369 20.6647 24.5943 20.4207 24.7428C20.0897 24.9444 19.7469 25.1344 19.3971 25.3077C17.5989 26.2004 15.5669 26.7026 13.4186 26.7026V26.7045H13.4143V26.7026C9.71025 26.7015 6.35566 25.2065 3.9285 22.7907C1.50456 20.3784 0.00429491 17.0432 0.00187902 13.3613H0V13.3525V13.3482H0.00187902C0.00295275 9.66232 1.50536 6.32419 3.93306 3.90895C6.35727 1.49798 9.70837 0.00427383 13.4095 0.0018698V0H13.4184ZM13.4227 2.99435V2.99622H13.4184H13.4095V2.99435C10.541 2.99622 7.94101 4.1563 6.05877 6.0285C4.1768 7.9007 3.00992 10.4906 3.00912 13.3485H3.011V13.3528V13.3616H3.00912C3.011 16.216 4.17599 18.8019 6.05823 20.6754C7.93967 22.5484 10.5424 23.7096 13.4141 23.7101V23.7082H13.4184H13.4272V23.7101C16.2957 23.7082 18.8946 22.5487 20.7774 20.676C22.6594 18.8038 23.8263 16.2146 23.8268 13.357H23.8252V13.3528V13.344H23.8268C23.8252 10.4896 22.6591 7.9023 20.778 6.0293C18.8965 4.1563 16.2946 2.99515 13.4227 2.99435Z" fill="#3F4B52"/>
</g>
<defs>
<clipPath id="clip0_42_154">
<rect width="32.9846" height="32" fill="white"/>
</clipPath>
</defs>
</svg>
